<?xml version="1.0" standalone="yes"?>
<svg xmlns="http://www.w3.org/2000/svg" width="300" height="65">
<path style="fill:#fcfcfd; stroke:none;" d="M0 0L0 65L300 65L300 0L0 0z"/>
<path style="fill:#3b90c7; stroke:none;" d="M30 12C27.3743 12.002 22.8884 11.2536 21.0278 13.6034C18.3177 17.026 18.4592 37.0199 21.0278 40.527C26.425 47.8964 30.9764 37.335 30.9992 33L31 24C30.9984 19.8961 30.7494 16.0366 30 12z"/>
<path style="fill:#ebc765; stroke:none;" d="M30.3333 13.6667L30.6667 14.3333L30.3333 13.6667M6.60339 21.0278C1.69309 24.9137 4.17869 49.3909 14.3966 40.9861C19.2542 36.9905 16.7934 12.9636 6.60339 21.0278M66 20L67 21L66 20z"/>
<path style="fill:#3b90c7; stroke:none;" d="M67 20L68 21L67 20z"/>

<path style="fill:#ebc765; stroke:none;" d="M77 21L78 22L77 21z"/>
<path style="fill:#a0494c; stroke:none;" d="M80 23L81 24L80 23z"/>
<path style="fill:#ebc765; stroke:none;" d="M147 23L148 24L147 23M167 23L168 24L167 23z"/>
<path style="fill:#a0494c; stroke:none;" d="M35 42L45 42C45 38.961 44.6421 14.7333 36.0278 25.6034C33.3274 29.0109 35 37.8341 35 42z"/>
<path style="fill:#3b90c7; stroke:none;" d="M68 24L69 25L68 24z"/>
<path style="fill:#ebc765; stroke:none;" d="M69 24L69 25L73 25L69 24z"/>
<path style="fill:#3b90c7; stroke:none;" d="M73 24L74 25L73 24z"/>
<path style="fill:#ebc765; stroke:none;" d="M90 24L91 25L90 24z"/>
<path style="fill:#3b90c7; stroke:none;" d="M91 24L92 25L91 24z"/>
<path style="fill:#2c3955; stroke:none;" d="M92.0008 24.5764C78.767 28.2179 86.3676 45.1243 98.9846 41.5664C110.787 38.2382 103.063 21.5323 92.0008 24.5764z"/>
<path style="fill:#3b90c7; stroke:none;" d="M98 24L99 25L98 24z"/>
<path style="fill:#ebc765; stroke:none;" d="M107 24L108 25L107 24z"/>
<path style="fill:#3b90c7; stroke:none;" d="M108 24L108 25L121 25L108 24z"/>
<path style="fill:#ebc765; stroke:none;" d="M121 24L122 25L121 24M130.333 24.6667L130.667 25.3333L130.333 24.6667z"/>
<path style="fill:#3b90c7; stroke:none;" d="M131 24L131 25L146 25L131 24z"/>
<path style="fill:#2c3955; stroke:none;" d="M131 25L131 42L148 43L148 38L135 39L135 35L144 35L144 31C139.815 31.7281 137.193 31.9632 135 28L148 29L148 24L131 25z"/>
<path style="fill:#ebc765; stroke:none;" d="M151 24L151 25L166 25L151 24z"/>
<path style="fill:#3b90c7; stroke:none;" d="M166.667 24.3333L167.333 24.6667L166.667 24.3333z"/>
<path style="fill:#ebc765; stroke:none;" d="M176 24L177 25L176 24z"/>
<path style="fill:#3b90c7; stroke:none;" d="M177.667 24.3333L178.333 24.6667L177.667 24.3333z"/>
<path style="fill:#2c3955; stroke:none;" d="M179 24.6427C166.264 25.6833 168.679 42.8677 181 41.8758C193.486 40.8705 191.098 23.6543 179 24.6427z"/>
<path style="fill:#3b90c7; stroke:none;" d="M181.667 24.3333L182.333 24.6667L181.667 24.3333z"/>
<path style="fill:#ebc765; stroke:none;" d="M183 24L184 25L183 24M193 24L193 25L208 25L193 24M220 24L221 25L220 24z"/>
<path style="fill:#3b90c7; stroke:none;" d="M221 24L221 25L224 25L221 24z"/>
<path style="fill:#2c3955; stroke:none;" d="M234 40L232 36C217.742 45.4061 214.898 22.068 232 30L233 27C228.28 25.2438 222.692 23.1729 218.133 26.5895C212.349 30.9252 214.096 39.6555 221.005 41.5664C225.407 42.7841 229.791 41.1135 234 40z"/>
<path style="fill:#3b90c7; stroke:none;" d="M225 24L225 25L228 25L225 24z"/>
<path style="fill:#ebc765; stroke:none;" d="M228 24L229 25L228 24M237 24L237 25L252 25L237 24z"/>
<path style="fill:#3b90c7; stroke:none;" d="M252.667 24.3333L253.333 24.6667L252.667 24.3333z"/>
<path style="fill:#ebc765; stroke:none;" d="M261 24L262 25L261 24z"/>
<path style="fill:#3b90c7; stroke:none;" d="M262.667 24.3333L263.333 24.6667L262.667 24.3333z"/>
<path style="fill:#2c3955; stroke:none;" d="M271 38L257 41C261.077 41.5153 265.963 42.9235 269.941 41.2577C281.392 36.4632 265.396 31.3474 261 31L274 26C270.788 25.5678 250.182 24.6157 259.529 33.2577C262.422 35.9319 267.591 35.5474 271 38z"/>
<path style="fill:#3b90c7; stroke:none;" d="M266.667 24.3333L267.333 24.6667L266.667 24.3333z"/>
<path style="fill:#ebc765; stroke:none;" d="M268 24L269 25L268 24z"/>
<path style="fill:#a0494c; stroke:none;" d="M59 25L60 26L59 25z"/>
<path style="fill:#ebc765; stroke:none;" d="M66 25L67 26L66 25z"/>
<path style="fill:#3b90c7; stroke:none;" d="M76 25L77 26L76 25z"/>
<path style="fill:#ebc765; stroke:none;" d="M88 25L89 26L88 25z"/>
<path style="fill:#a0494c; stroke:none;" d="M100 25L101 26L100 25z"/>
<path style="fill:#2c3955; stroke:none;" d="M108 25L108 42C112.621 42 119.671 43.2948 123.775 40.821C129.072 37.6288 128.634 28.1984 122.892 25.7423C118.667 23.9351 112.516 25 108 25z"/>
<path style="fill:#a0494c; stroke:none;" d="M123 25L124 26L123 25z"/>
<path style="fill:#3b90c7; stroke:none;" d="M151 25L152 26L151 25z"/>
<path style="fill:#2c3955; stroke:none;" d="M152 25L152 42L156 42L156 34L164 35C163.146 31.0129 159.511 32 156 32L156 28L168 28L168 25L152 25z"/>
<path style="fill:#3b90c7; stroke:none;" d="M174 25L175 26L174 25M185 25L186 26L185 25M193 25L194 26L193 25z"/>
<path style="fill:#2c3955; stroke:none;" d="M194 25L194 42L198 42L198 35C202.485 35.7072 204.371 37.8445 206 42L212 42L207 34C210.723 32.5034 212.616 27.6826 207.852 25.6034C204.021 23.9316 198.116 25 194 25z"/>
<path style="fill:#3b90c7; stroke:none;" d="M209 25L210 26L209 25M218 25L219 26L218 25M229.667 25.3333L230.333 25.6667L229.667 25.3333M237 25L238 26L237 25z"/>
<path style="fill:#2c3955; stroke:none;" d="M238 25L238 42L254 42L254 39L242 39L242 34L250 35C249.146 31.0129 245.511 32 242 32L242 28L254 28L254 25L238 25z"/>
<path style="fill:#3b90c7; stroke:none;" d="M259 25L260 26L259 25M270 25L271 26L270 25z"/>
<path style="fill:#ebc765; stroke:none;" d="M271 25L272 26L271 25M45 26L45 41L46 41L45 26M77 26L78 27L77 26z"/>
<path style="fill:#3b90c7; stroke:none;" d="M80 26L81 27L80 26z"/>
<path style="fill:#a0494c; stroke:none;" d="M87 26L88 27L87 26z"/>
<path style="fill:#ebc765; stroke:none;" d="M102 26L103 27L102 26z"/>
<path style="fill:#3b90c7; stroke:none;" d="M108 26L108 41L109 41L108 26z"/>
<path style="fill:#ebc765; stroke:none;" d="M125 26L126 27L125 26M151 26L152 27L151 26M172 26L173 27L172 26z"/>
<path style="fill:#3b90c7; stroke:none;" d="M186 26L187 27L186 26z"/>
<path style="fill:#ebc765; stroke:none;" d="M187 26L188 27L187 26z"/>
<path style="fill:#3b90c7; stroke:none;" d="M210 26L211 27L210 26M217 26L218 27L217 26M231 26L232 27L231 26z"/>
<path style="fill:#ebc765; stroke:none;" d="M232 26L233 27L232 26M237 26L237 41L238 41L237 26z"/>
<path style="fill:#3b90c7; stroke:none;" d="M258 26L259 27L258 26z"/>
<path style="fill:#a0494c; stroke:none;" d="M58 27L59 28L58 27z"/>
<path style="fill:#3b90c7; stroke:none;" d="M78 27L79 28L78 27z"/>
<path style="fill:#a0494c; stroke:none;" d="M86 27L87 28L86 27z"/>
<path style="fill:#ebc765; stroke:none;" d="M103 27L104 28L103 27M171 27L172 28L171 27z"/>
<path style="fill:#3b90c7; stroke:none;" d="M178 27L178 28L182 28L178 27z"/>
<path style="fill:#ebc765; stroke:none;" d="M188 27L189 28L188 27M211 27L212 28L211 27z"/>
<path style="fill:#3b90c7; stroke:none;" d="M216 27L217 28L216 27M223 27L223 28L227 28L223 27M233 27L234 28L233 27z"/>
<path style="fill:#ebc765; stroke:none;" d="M257 27L258 28L257 27z"/>
<path style="fill:#3b90c7; stroke:none;" d="M262.667 27.3333L263.333 27.6667L262.667 27.3333z"/>
<path style="fill:#ebc765; stroke:none;" d="M264.667 27.3333L265.333 27.6667L264.667 27.3333z"/>
<path style="fill:#3b90c7; stroke:none;" d="M266.667 27.3333L267.333 27.6667L266.667 27.3333M273 27L274 28L273 27M63 28L64 29L63 28z"/>
<path style="fill:#ebc765; stroke:none;" d="M85 28L86 29L85 28z"/>
<path style="fill:#a0494c; stroke:none;" d="M91 28L92 29L91 28z"/>
<path style="fill:#fcfcfd; stroke:none;" d="M92.2292 29.0432C86.7604 32.205 91.199 40.7252 96.8526 37.777C102.819 34.6657 98.1501 25.62 92.2292 29.0432z"/>
<path style="fill:#ebc765; stroke:none;" d="M97 28L98 29L97 28z"/>
<path style="fill:#fcfcfd; stroke:none;" d="M113 28L113 38C124.802 37.9583 124.549 28.1364 113 28z"/>
<path style="fill:#a0494c; stroke:none;" d="M120 28L121 29L120 28M126 28L127 29L126 28z"/>
<path style="fill:#3b90c7; stroke:none;" d="M135 28L135 31L136 31L135 28M167 28L168 29L167 28M176 28L174 31L176 28z"/>
<path style="fill:#fcfcfd; stroke:none;" d="M177.229 29.0324C171.274 32.5665 176.994 41.219 182.721 37.8056C188.566 34.3211 182.998 25.6093 177.229 29.0324z"/>
<path style="fill:#3b90c7; stroke:none;" d="M183 28L184 29L183 28M188 28L189 29L188 28z"/>
<path style="fill:#fcfcfd; stroke:none;" d="M198 28L198 31L207 31L198 28z"/>
<path style="fill:#ebc765; stroke:none;" d="M206 28L207 29L206 28z"/>
<path style="fill:#3b90c7; stroke:none;" d="M211 28L211 32L212 32L211 28M215 28L216 29L215 28z"/>
<path style="fill:#ebc765; stroke:none;" d="M221 28L222 29L221 28M228 28L229 29L228 28z"/>
<path style="fill:#3b90c7; stroke:none;" d="M229 28L230 29L229 28z"/>
<path style="fill:#ebc765; stroke:none;" d="M233 28L234 29L233 28z"/>
<path style="fill:#3b90c7; stroke:none;" d="M253 28L254 29L253 28M257 28L258 29L257 28M261 28L262 29L261 28z"/>
<path style="fill:#ebc765; stroke:none;" d="M269 28L270 29L269 28z"/>
<path style="fill:#3b90c7; stroke:none;" d="M270 28L271 29L270 28z"/>
<path style="fill:#ebc765; stroke:none;" d="M90 29L91 30L90 29z"/>
<path style="fill:#3b90c7; stroke:none;" d="M104 29L105 30L104 29z"/>
<path style="fill:#ebc765; stroke:none;" d="M121 29L122 30L121 29z"/>
<path style="fill:#3b90c7; stroke:none;" d="M170 29L171 30L170 29M184 29L185 30L184 29M189.333 29.6667L189.667 30.3333L189.333 29.6667M207 29L208 30L207 29z"/>
<path style="fill:#ebc765; stroke:none;" d="M214 29L215 30L214 29z"/>
<path style="fill:#3b90c7; stroke:none;" d="M219 29L220 30L219 29z"/>
<path style="fill:#ebc765; stroke:none;" d="M230 29L231 30L230 29z"/>
<path style="fill:#3b90c7; stroke:none;" d="M232 29L233 30L232 29M271.667 29.3333L272.333 29.6667L271.667 29.3333z"/>
<path style="fill:#ebc765; stroke:none;" d="M84 30L85 31L84 30M122 30L123 31L122 30z"/>
<path style="fill:#3b90c7; stroke:none;" d="M127 30L128 31L127 30z"/>
<path style="fill:#ebc765; stroke:none;" d="M143 30L144 31L143 30z"/>
<path style="fill:#3b90c7; stroke:none;" d="M185.333 30.6667L185.667 31.3333L185.333 30.6667M214.333 30.6667L214.667 31.3333L214.333 30.6667z"/>
<path style="fill:#ebc765; stroke:none;" d="M219 30L220 31L219 30z"/>
<path style="fill:#3b90c7; stroke:none;" d="M231 30L232 31L231 30z"/>
<path style="fill:#ebc765; stroke:none;" d="M249 30L250 31L249 30z"/>
<path style="fill:#3b90c7; stroke:none;" d="M257.333 30.6667L257.667 31.3333L257.333 30.6667M261 30L262 31L261 30z"/>
<path style="fill:#ebc765; stroke:none;" d="M57 31L58 32L57 31z"/>
<path style="fill:#3b90c7; stroke:none;" d="M84 31L84 35L85 35L84 31z"/>
<path style="fill:#ebc765; stroke:none;" d="M89 31L90 32L89 31z"/>
<path style="fill:#a0494c; stroke:none;" d="M100 31L101 32L100 31M127 31L128 32L127 31z"/>
<path style="fill:#3b90c7; stroke:none;" d="M136 31L136 32L142 32L136 31z"/>
<path style="fill:#ebc765; stroke:none;" d="M156 31L156 32L162 32L156 31z"/>
<path style="fill:#3b90c7; stroke:none;" d="M162.667 31.3333L163.333 31.6667L162.667 31.3333z"/>
<path style="fill:#ebc765; stroke:none;" d="M169 31L169 35L170 35L169 31M174 31L175 32L174 31z"/>
<path style="fill:#3b90c7; stroke:none;" d="M198 31L199 32L198 31z"/>
<path style="fill:#ebc765; stroke:none;" d="M199 31L199 32L205 32L199 31z"/>
<path style="fill:#3b90c7; stroke:none;" d="M205.667 31.3333L206.333 31.6667L205.667 31.3333M218 31L219 32L218 31z"/>
<path style="fill:#ebc765; stroke:none;" d="M242 31L242 32L248 32L242 31z"/>
<path style="fill:#3b90c7; stroke:none;" d="M248.667 31.3333L249.333 31.6667L248.667 31.3333M265 31L265 32L269 32L265 31z"/>
<path style="fill:#ebc765; stroke:none;" d="M269 31L270 32L269 31z"/>
<path style="fill:#3b90c7; stroke:none;" d="M100 32L101 33L100 32z"/>
<path style="fill:#ebc765; stroke:none;" d="M105 32L105 35L106 35L105 32M218.333 32.6667L218.667 33.3333L218.333 32.6667M257 32L258 33L257 32z"/>
<path style="fill:#3b90c7; stroke:none;" d="M271 32L272 33L271 32z"/>
<path style="fill:#ebc765; stroke:none;" d="M100 33L101 34L100 33z"/>
<path style="fill:#3b90c7; stroke:none;" d="M209 33L210 34L209 33z"/>
<path style="fill:#ebc765; stroke:none;" d="M210 33L211 34L210 33z"/>
<path style="fill:#3b90c7; stroke:none;" d="M258 33L259 34L258 33z"/>
<path style="fill:#ebc765; stroke:none;" d="M273 33L274 34L273 33z"/>
<path style="fill:#3b90c7; stroke:none;" d="M63 34L64 35L63 34M100 34L101 35L100 34M156 34L156 35L163 35L156 34z"/>
<path style="fill:#ebc765; stroke:none;" d="M185 34L186 35L185 34z"/>
<path style="fill:#3b90c7; stroke:none;" d="M207.333 34.6667L207.667 35.3333L207.333 34.6667z"/>
<path style="fill:#ebc765; stroke:none;" d="M208 34L209 35L208 34z"/>
<path style="fill:#3b90c7; stroke:none;" d="M218.333 34.6667L218.667 35.3333L218.333 34.6667M242 34L242 35L249 35L242 34z"/>
<path style="fill:#ebc765; stroke:none;" d="M259 34L260 35L259 34z"/>
<path style="fill:#3b90c7; stroke:none;" d="M260 34L261 35L260 34M273 34L274 35L273 34M58 35L59 36L58 35z"/>
<path style="fill:#ebc765; stroke:none;" d="M64 35L65 36L64 35z"/>
<path style="fill:#3b90c7; stroke:none;" d="M78 35L79 36L78 35z"/>
<path style="fill:#ebc765; stroke:none;" d="M84 35L85 36L84 35M89 35L90 36L89 35z"/>
<path style="fill:#3b90c7; stroke:none;" d="M127 35L128 36L127 35M135 35L135 38L136 38L135 35z"/>
<path style="fill:#a0494c; stroke:none;" d="M143 35L144 36L143 35z"/>
<path style="fill:#ebc765; stroke:none;" d="M163 35L164 36L163 35M174 35L175 36L174 35z"/>
<path style="fill:#3b90c7; stroke:none;" d="M185 35L186 36L185 35M202 35L203 36L202 35M214.333 35.6667L214.667 36.3333L214.333 35.6667z"/>
<path style="fill:#ebc765; stroke:none;" d="M249 35L250 36L249 35M264 35L264 36L267 36L264 35z"/>
<path style="fill:#3b90c7; stroke:none;" d="M267.667 35.3333L268.333 35.6667L267.667 35.3333z"/>
<path style="fill:#ebc765; stroke:none;" d="M77 36L78 37L77 36z"/>
<path style="fill:#3b90c7; stroke:none;" d="M80 36L81 37L80 36z"/>
<path style="fill:#ebc765; stroke:none;" d="M99 36L100 37L99 36z"/>
<path style="fill:#a0494c; stroke:none;" d="M122 36L123 37L122 36z"/>
<path style="fill:#ebc765; stroke:none;" d="M127 36L128 37L127 36z"/>
<path style="fill:#3b90c7; stroke:none;" d="M174 36L175 37L174 36M189 36L190 37L189 36M203 36L204 37L203 36z"/>
<path style="fill:#ebc765; stroke:none;" d="M219 36L220 37L219 36M258 36L260 38L258 36M269 36L270 37L269 36M274 36L274 39L275 39L274 36z"/>
<path style="fill:#3b90c7; stroke:none;" d="M59 37L60 38L59 37z"/>
<path style="fill:#ebc765; stroke:none;" d="M66 37L67 38L66 37M75 37L76 38L75 37z"/>
<path style="fill:#a0494c; stroke:none;" d="M76 37L77 38L76 37z"/>
<path style="fill:#ebc765; stroke:none;" d="M81 37L82 38L81 37z"/>
<path style="fill:#a0494c; stroke:none;" d="M90 37L91 38L90 37z"/>
<path style="fill:#ebc765; stroke:none;" d="M98 37L99 38L98 37M104 37L105 38L104 37M121 37L122 38L121 37z"/>
<path style="fill:#3b90c7; stroke:none;" d="M170 37L171 38L170 37M175 37L176 38L175 37M184 37L185 38L184 37z"/>
<path style="fill:#ebc765; stroke:none;" d="M189 37L190 38L189 37z"/>
<path style="fill:#3b90c7; stroke:none;" d="M208 37L209 38L208 37z"/>
<path style="fill:#ebc765; stroke:none;" d="M220 37L221 38L220 37z"/>
<path style="fill:#3b90c7; stroke:none;" d="M230 37L231 38L230 37M232 37L233 38L232 37M258 37L259 38L258 37M270 37L271 38L270 37z"/>
<path style="fill:#a0494c; stroke:none;" d="M68 38L69 39L68 38z"/>
<path style="fill:#3b90c7; stroke:none;" d="M69 38L70 39L69 38z"/>
<path style="fill:#ebc765; stroke:none;" d="M70 38L70 39L73 39L70 38z"/>
<path style="fill:#a0494c; stroke:none;" d="M73 38L74 39L73 38z"/>
<path style="fill:#ebc765; stroke:none;" d="M85 38L86 39L85 38M92 38L93 39L92 38M96 38L97 39L96 38z"/>
<path style="fill:#a0494c; stroke:none;" d="M97 38L98 39L97 38z"/>
<path style="fill:#ebc765; stroke:none;" d="M113 38L113 39L119 39L113 38z"/>
<path style="fill:#3b90c7; stroke:none;" d="M119 38L120 39L119 38M126 38L127 39L126 38z"/>
<path style="fill:#a0494c; stroke:none;" d="M135 38L136 39L135 38z"/>
<path style="fill:#ebc765; stroke:none;" d="M136 38L136 39L147 39L136 38M148 38L148 43L149 43L148 38z"/>
<path style="fill:#3b90c7; stroke:none;" d="M171 38L172 39L171 38M176 38L177 39L176 38z"/>
<path style="fill:#ebc765; stroke:none;" d="M177 38L178 39L177 38M182 38L183 39L182 38z"/>
<path style="fill:#3b90c7; stroke:none;" d="M183 38L184 39L183 38M188 38L189 39L188 38z"/>
<path style="fill:#ebc765; stroke:none;" d="M204 38L205 39L204 38z"/>
<path style="fill:#3b90c7; stroke:none;" d="M209 38L210 39L209 38M215 38L216 39L215 38M221 38L222 39L221 38z"/>
<path style="fill:#ebc765; stroke:none;" d="M222 38L223 39L222 38M227 38L228 39L227 38z"/>
<path style="fill:#3b90c7; stroke:none;" d="M228 38L229 39L228 38M233 38L234 39L233 38z"/>
<path style="fill:#ebc765; stroke:none;" d="M253 38L254 39L253 38z"/>
<path style="fill:#3b90c7; stroke:none;" d="M254 38L254 43L255 43L254 38z"/>
<path style="fill:#ebc765; stroke:none;" d="M257 38L258 39L257 38z"/>
<path style="fill:#3b90c7; stroke:none;" d="M260.667 38.3333L261.333 38.6667L260.667 38.3333M269 38L270 39L269 38M80.6667 39.3333L81.3333 39.6667L80.6667 39.3333z"/>
<path style="fill:#ebc765; stroke:none;" d="M86 39L87 40L86 39z"/>
<path style="fill:#3b90c7; stroke:none;" d="M172 39L173 40L172 39M187 39L188 40L187 39M205 39L206 40L205 39z"/>
<path style="fill:#ebc765; stroke:none;" d="M210 39L211 40L210 39z"/>
<path style="fill:#3b90c7; stroke:none;" d="M216 39L217 40L216 39M257 39L258 40L257 39M264 39L264 40L267 40L264 39M273 39L274 40L273 39z"/>
<path style="fill:#ebc765; stroke:none;" d="M30 40L31 41L30 40z"/>
<path style="fill:#3b90c7; stroke:none;" d="M62 40L63 41L62 40M78 40L79 41L78 40z"/>
<path style="fill:#ebc765; stroke:none;" d="M87 40L88 41L87 40M151 40L152 41L151 40z"/>
<path style="fill:#3b90c7; stroke:none;" d="M173 40L174 41L173 40M186 40L187 41L186 40z"/>
<path style="fill:#ebc765; stroke:none;" d="M193 40L194 41L193 40M211 40L212 41L211 40z"/>
<path style="fill:#3b90c7; stroke:none;" d="M217 40L218 41L217 40M231 40L232 41L231 40M272 40L273 41L272 40z"/>
<path style="fill:#ebc765; stroke:none;" d="M20 41L21 42L20 41z"/>
<path style="fill:#a0494c; stroke:none;" d="M64 41L65 42L64 41z"/>
<path style="fill:#3b90c7; stroke:none;" d="M76 41L77 42L76 41M89 41L90 42L89 41z"/>
<path style="fill:#ebc765; stroke:none;" d="M100 41L101 42L100 41M107 41L108 42L107 41M123 41L124 42L123 41z"/>
<path style="fill:#3b90c7; stroke:none;" d="M130 41L131 42L130 41M151 41L152 42L151 41M156 41L157 42L156 41z"/>
<path style="fill:#ebc765; stroke:none;" d="M174 41L175 42L174 41z"/>
<path style="fill:#3b90c7; stroke:none;" d="M175 41L176 42L175 41M184 41L185 42L184 41z"/>
<path style="fill:#ebc765; stroke:none;" d="M185 41L186 42L185 41z"/>
<path style="fill:#3b90c7; stroke:none;" d="M193 41L194 42L193 41M198 41L199 42L198 41M205 41L206 42L205 41M212 41L213 42L212 41M219 41L220 42L219 41M229 41L230 42L229 41M237 41L238 42L237 41M259.667 41.3333L260.333 41.6667L259.667 41.3333M270 41L271 42L270 41z"/>
<path style="fill:#ebc765; stroke:none;" d="M271 41L272 42L271 41M22 42L23 43L22 42M24 42L24 43L29 43L24 42M36 42L36 43L44 43L36 42M66.6667 42.3333L67.3333 42.6667L66.6667 42.3333z"/>
<path style="fill:#3b90c7; stroke:none;" d="M68 42L68 43L73 43L68 42z"/>
<path style="fill:#ebc765; stroke:none;" d="M73.6667 42.3333L74.3333 42.6667L73.6667 42.3333M91 42L92 43L91 42z"/>
<path style="fill:#3b90c7; stroke:none;" d="M92 42L92 43L97 43L92 42z"/>
<path style="fill:#ebc765; stroke:none;" d="M97 42L98 43L97 42M108 42L108 43L120 43L108 42M130 42L130 43L147 43L130 42M177 42L177 43L183 43L177 42M221 42L221 43L228 43L221 42M253 42L254 43L253 42M262 42L262 43L269 43L262 42M139 46L139 47L142 47L139 46z"/>
<path style="fill:#2c3955; stroke:none;" d="M198 46L198 50L195 49L193 53L194 53L195 50L197 50L198 56L199 56L198 46z"/>
<path style="fill:#ebc765; stroke:none;" d="M199 46L199 56L200 56L199 46M204 46L204 56L205 56L204 46z"/>
<path style="fill:#2c3955; stroke:none;" d="M205 46L205 56L210 53L209 53L206 55L207 50L209 52L210 52L206 50L205 46z"/>
<path style="fill:#ebc765; stroke:none;" d="M221 46L221 47L229 48L221 46z"/>
<path style="fill:#a0494c; stroke:none;" d="M235 46L235 56L237 56L237 46L235 46M138 47L139 48L138 47z"/>
<path style="fill:#2c3955; stroke:none;" d="M139 47L139 48L142 48L139 47z"/>
<path style="fill:#a0494c; stroke:none;" d="M142 47L143 48L142 47z"/>
<path style="fill:#3b90c7; stroke:none;" d="M221 47L222 48L221 47z"/>
<path style="fill:#2c3955; stroke:none;" d="M222 47L222 48L224 56L225 56L228 48L222 47M138 48L142 55L138 55L138 56C144.3 54.9491 141.55 51.0464 138 48z"/>
<path style="fill:#ebc765; stroke:none;" d="M225 48L225 56L226 56L225 48M137 49L138 50L137 49M139 49L140 50L139 49z"/>
<path style="fill:#2c3955; stroke:none;" d="M145 49L145 58L146 58L146 55L150 56C150.732 51.5589 149.42 49.7533 145 49z"/>
<path style="fill:#ebc765; stroke:none;" d="M146 49L147 50L146 49z"/>
<path style="fill:#3b90c7; stroke:none;" d="M149 49L150 50L149 49z"/>
<path style="fill:#ebc765; stroke:none;" d="M152 50L152 51L155 51L152 50z"/>
<path style="fill:#2c3955; stroke:none;" d="M154 49L154 50L157 50L157 55L154 50L153 50C151.129 59.8283 162.705 51.8906 154 49z"/>
<path style="fill:#ebc765; stroke:none;" d="M157 49L158 50L157 49z"/>
<path style="fill:#a0494c; stroke:none;" d="M160 49L161 50L160 49z"/>
<path style="fill:#ebc765; stroke:none;" d="M161 49L162 50L161 49z"/>
<path style="fill:#a0494c; stroke:none;" d="M162 49L163 50L162 49z"/>
<path style="fill:#2c3955; stroke:none;" d="M163 49L165 56L166 56L163 49z"/>
<path style="fill:#3b90c7; stroke:none;" d="M168 49L169 50L168 49z"/>
<path style="fill:#2c3955; stroke:none;" d="M169.667 49.3333L170.333 49.6667L169.667 49.3333z"/>
<path style="fill:#3b90c7; stroke:none;" d="M171 49L172 50L171 49z"/>
<path style="fill:#ebc765; stroke:none;" d="M174 49L175 50L174 49z"/>
<path style="fill:#2c3955; stroke:none;" d="M179 55L179 54L175 55L175 50L179 51C173.953 47.5968 172.143 56.028 179 55z"/>
<path style="fill:#ebc765; stroke:none;" d="M178 49L179 50L178 49z"/>
<path style="fill:#3b90c7; stroke:none;" d="M181 49L181 56L182 56L183 49L181 49z"/>
<path style="fill:#2c3955; stroke:none;" d="M182 52L183 52L185 50L182 52z"/>
<path style="fill:#ebc765; stroke:none;" d="M185 49L186 50L185 49z"/>
<path style="fill:#3b90c7; stroke:none;" d="M187 49L186 51L187 49z"/>
<path style="fill:#2c3955; stroke:none;" d="M191 56L191 55L187 54L187 53L192 53C188.504 46.8565 183.513 54.7495 191 56z"/>
<path style="fill:#a0494c; stroke:none;" d="M190 49L191 50L190 49z"/>
<path style="fill:#ebc765; stroke:none;" d="M194 49L195 50L194 49M197 49L198 50L197 49M206 49L207 50L206 49z"/>
<path style="fill:#3b90c7; stroke:none;" d="M209 49L210 50L209 49z"/>
<path style="fill:#ebc765; stroke:none;" d="M211 49L212 50L211 49z"/>
<path style="fill:#2c3955; stroke:none;" d="M212 49L214 58L215 58L217 50L216 50L215 54L214 54L212 49z"/>
<path style="fill:#3b90c7; stroke:none;" d="M216.667 49.3333L217.333 49.6667L216.667 49.3333z"/>
<path style="fill:#a0494c; stroke:none;" d="M229.333 49.6667L229.667 50.3333L229.333 49.6667z"/>
<path style="fill:#2c3955; stroke:none;" d="M230 49L230 50L232 52L229 50L228 50C228.3 53.8644 229.089 55.3483 233 56L233 55L229 55L229 53L233 53L230 49z"/>
<path style="fill:#3b90c7; stroke:none;" d="M232 49L233 50L232 49z"/>
<path style="fill:#ebc765; stroke:none;" d="M239 49L241 51L239 49z"/>
<path style="fill:#2c3955; stroke:none;" d="M240 49L240 50L243 52L240 50L239 50C239.3 53.8644 240.089 55.3483 244 56L244 55L240 55L240 53L244 53L240 49z"/>
<path style="fill:#ebc765; stroke:none;" d="M243 49L244 50L243 49M246 49L248 51L246 49z"/>
<path style="fill:#2c3955; stroke:none;" d="M247 49L247 50L249 53L250 53L251 49L247 49z"/>
<path style="fill:#ebc765; stroke:none;" d="M251 49L252 50L251 49z"/>
<path style="fill:#2c3955; stroke:none;" d="M253 49L253 56L254 56L256 49L253 49z"/>
<path style="fill:#ebc765; stroke:none;" d="M254 49L255 50L254 49z"/>
<path style="fill:#a0494c; stroke:none;" d="M256 49L257 50L256 49M258 49L259 50L258 49z"/>
<path style="fill:#2c3955; stroke:none;" d="M259 49L259 50L262 51L259 49z"/>
<path style="fill:#a0494c; stroke:none;" d="M261 49L262 50L261 49z"/>
<path style="fill:#2c3955; stroke:none;" d="M265 49L265 56L266 56L269 50L269 56L270 56L273 50L273 56L274 56L273 49L265 49z"/>
<path style="fill:#ebc765; stroke:none;" d="M266 49L267 50L266 49M269.667 49.3333L270.333 49.6667L269.667 49.3333z"/>
<path style="fill:#3b90c7; stroke:none;" d="M273 49L274 50L273 49M140 50L141 51L140 50z"/>
<path style="fill:#ebc765; stroke:none;" d="M147.667 50.3333L148.333 50.6667L147.667 50.3333M150 50L151 51L150 50z"/>
<path style="fill:#fcfcfd; stroke:none;" d="M155 50L154 55C156.444 53.3925 156.662 52.413 155 50z"/>
<path style="fill:#3b90c7; stroke:none;" d="M156 50L157 51L156 50z"/>
<path style="fill:#2c3955; stroke:none;" d="M160 50L160 56L161 56L162 50L160 50z"/>
<path style="fill:#3b90c7; stroke:none;" d="M162 50L163 51L162 50z"/>
<path style="fill:#ebc765; stroke:none;" d="M163 50L164 51L163 50z"/>
<path style="fill:#a0494c; stroke:none;" d="M165 50L166 51L165 50z"/>
<path style="fill:#ebc765; stroke:none;" d="M167.333 50.6667L167.667 51.3333L167.333 50.6667z"/>
<path style="fill:#2c3955; stroke:none;" d="M168 50L168 55L168 56L172 55L172 53L168 50z"/>
<path style="fill:#ebc765; stroke:none;" d="M171 50L172 51L171 50z"/>
<path style="fill:#3b90c7; stroke:none;" d="M175 50L176 51L175 50z"/>
<path style="fill:#fcfcfd; stroke:none;" d="M176 50L176 55L177 55L176 50z"/>
<path style="fill:#ebc765; stroke:none;" d="M177 50L178 51L177 50M179 50L180 51L179 50z"/>
<path style="fill:#a0494c; stroke:none;" d="M183 50L184 51L183 50z"/>
<path style="fill:#ebc765; stroke:none;" d="M184 50L185 51L184 50z"/>
<path style="fill:#fcfcfd; stroke:none;" d="M188 50L188 52L190 52L188 50z"/>
<path style="fill:#ebc765; stroke:none;" d="M189 50L190 51L189 50z"/>
<path style="fill:#3b90c7; stroke:none;" d="M191 50L192 51L191 50z"/>
<path style="fill:#ebc765; stroke:none;" d="M193 50L194 51L193 50M195.667 50.3333L196.333 50.6667L195.667 50.3333M207 50L208 51L207 50z"/>
<path style="fill:#3b90c7; stroke:none;" d="M208 50L209 51L208 50z"/>
<path style="fill:#ebc765; stroke:none;" d="M210 50L211 51L210 50M213 50L214 51L213 50M217 50L218 51L217 50z"/>
<path style="fill:#fcfcfd; stroke:none;" d="M229 52L232 52L231 50L229 52z"/>
<path style="fill:#ebc765; stroke:none;" d="M231 50L232 51L231 50M233 50L234 51L233 50z"/>
<path style="fill:#fcfcfd; stroke:none;" d="M240 52L243 52L242 50L240 52z"/>
<path style="fill:#a0494c; stroke:none;" d="M242 50L243 51L242 50z"/>
<path style="fill:#2c3955; stroke:none;" d="M246 50L248 56L246 50z"/>
<path style="fill:#fcfcfd; stroke:none;" d="M248 50L247 52L249 52L248 50z"/>
<path style="fill:#a0494c; stroke:none;" d="M250 50L251 51L250 50z"/>
<path style="fill:#ebc765; stroke:none;" d="M255 50L255 51L258 51L255 50z"/>
<path style="fill:#3b90c7; stroke:none;" d="M258 50L259 51L258 50M262 50L261 52L262 50z"/>
<path style="fill:#ebc765; stroke:none;" d="M267 50L268 51L267 50z"/>
<path style="fill:#3b90c7; stroke:none;" d="M268 50L269 51L268 50z"/>
<path style="fill:#ebc765; stroke:none;" d="M271.667 50.3333L272.333 50.6667L271.667 50.3333M274 50L274 56L275 56L274 50z"/>
<path style="fill:#3b90c7; stroke:none;" d="M139 51L140 52L139 51z"/>
<path style="fill:#ebc765; stroke:none;" d="M142 51L143 52L142 51z"/>
<path style="fill:#fcfcfd; stroke:none;" d="M146 51L149 55L149 51L146 51z"/>
<path style="fill:#a0494c; stroke:none;" d="M149 51L150 52L149 51z"/>
<path style="fill:#3b90c7; stroke:none;" d="M153 51L154 52L153 51M158 51L158 54L159 54L158 51z"/>
<path style="fill:#a0494c; stroke:none;" d="M161 51L162 52L161 51z"/>
<path style="fill:#3b90c7; stroke:none;" d="M164 51L165 52L164 51z"/>
<path style="fill:#ebc765; stroke:none;" d="M169 51L170 52L169 51z"/>
<path style="fill:#3b90c7; stroke:none;" d="M173 51L174 52L173 51z"/>
<path style="fill:#a0494c; stroke:none;" d="M178.667 51.3333L179.333 51.6667L178.667 51.3333z"/>
<path style="fill:#ebc765; stroke:none;" d="M187 51L188 52L187 51z"/>
<path style="fill:#3b90c7; stroke:none;" d="M190 51L191 52L190 51z"/>
<path style="fill:#a0494c; stroke:none;" d="M193 51L194 52L193 51z"/>
<path style="fill:#fcfcfd; stroke:none;" d="M195 51L195 55L198 51L195 51M206 51L207 55L208 55L209 51L206 51z"/>
<path style="fill:#3b90c7; stroke:none;" d="M210 51L211 52L210 51M213 51L214 52L213 51z"/>
<path style="fill:#ebc765; stroke:none;" d="M215 51L216 52L215 51z"/>
<path style="fill:#a0494c; stroke:none;" d="M233 51L234 52L233 51z"/>
<path style="fill:#3b90c7; stroke:none;" d="M238 51L239 52L238 51z"/>
<path style="fill:#ebc765; stroke:none;" d="M244.333 51.6667L244.667 52.3333L244.333 51.6667z"/>
<path style="fill:#3b90c7; stroke:none;" d="M249 51L250 52L249 51z"/>
<path style="fill:#ebc765; stroke:none;" d="M254 51L255 52L254 51z"/>
<path style="fill:#a0494c; stroke:none;" d="M262 51L262 56L263 56L262 51z"/>
<path style="fill:#ebc765; stroke:none;" d="M270 51L270 56L271 56L270 51z"/>
<path style="fill:#a0494c; stroke:none;" d="M141 52L142 53L141 52z"/>
<path style="fill:#3b90c7; stroke:none;" d="M149.333 52.6667L149.667 53.3333L149.333 52.6667z"/>
<path style="fill:#ebc765; stroke:none;" d="M153 52L154 53L153 52z"/>
<path style="fill:#3b90c7; stroke:none;" d="M161 52L161 56L162 56L161 52z"/>
<path style="fill:#ebc765; stroke:none;" d="M164 52L164 56L165 56L164 52z"/>
<path style="fill:#3b90c7; stroke:none;" d="M168 52L169 53L168 52z"/>
<path style="fill:#ebc765; stroke:none;" d="M171 52L172 53L171 52z"/>
<path style="fill:#3b90c7; stroke:none;" d="M174 52L175 53L174 52M178 52L179 53L178 52z"/>
<path style="fill:#2c3955; stroke:none;" d="M179 52L180 53L179 52z"/>
<path style="fill:#a0494c; stroke:none;" d="M182 52L182 56L183 56L182 52z"/>
<path style="fill:#3b90c7; stroke:none;" d="M194 52L195 53L194 52z"/>
<path style="fill:#a0494c; stroke:none;" d="M209.667 52.3333L210.333 52.6667L209.667 52.3333z"/>
<path style="fill:#ebc765; stroke:none;" d="M212 52L213 53L212 52z"/>
<path style="fill:#a0494c; stroke:none;" d="M216 52L217 53L216 52z"/>
<path style="fill:#ebc765; stroke:none;" d="M227.333 52.6667L227.667 53.3333L227.333 52.6667z"/>
<path style="fill:#3b90c7; stroke:none;" d="M233 52L234 53L233 52z"/>
<path style="fill:#a0494c; stroke:none;" d="M238 52L239 53L238 52M247 52L247 54L249 54L247 52z"/>
<path style="fill:#ebc765; stroke:none;" d="M248 52L249 53L248 52z"/>
<path style="fill:#3b90c7; stroke:none;" d="M250 52L251 53L250 52M258 52L257 54L258 52z"/>
<path style="fill:#2c3955; stroke:none;" d="M258 56L262 54L259 55L262 53L258 56z"/>
<path style="fill:#ebc765; stroke:none;" d="M143 53L144 54L143 53z"/>
<path style="fill:#3b90c7; stroke:none;" d="M153 53L154 54L153 53z"/>
<path style="fill:#a0494c; stroke:none;" d="M170 53L171 54L170 53M173 53L174 54L173 53M178.667 53.3333L179.333 53.6667L178.667 53.3333z"/>
<path style="fill:#ebc765; stroke:none;" d="M187 53L188 54L187 53z"/>
<path style="fill:#a0494c; stroke:none;" d="M193.667 53.3333L194.333 53.6667L193.667 53.3333z"/>
<path style="fill:#3b90c7; stroke:none;" d="M210 53L211 54L210 53z"/>
<path style="fill:#ebc765; stroke:none;" d="M214 53L215 54L214 53M216 53L217 54L216 53z"/>
<path style="fill:#3b90c7; stroke:none;" d="M238 53L239 54L238 53z"/>
<path style="fill:#ebc765; stroke:none;" d="M245.333 53.6667L245.667 54.3333L245.333 53.6667z"/>
<path style="fill:#3b90c7; stroke:none;" d="M249 53L250 54L249 53z"/>
<path style="fill:#fcfcfd; stroke:none;" d="M259 53L259 55L261 55L261 53L259 53z"/>
<path style="fill:#3b90c7; stroke:none;" d="M261 53L262 54L261 53z"/>
<path style="fill:#ebc765; stroke:none;" d="M137 54L137 56L139 54L137 54z"/>
<path style="fill:#3b90c7; stroke:none;" d="M141 54L142 55L141 54z"/>
<path style="fill:#ebc765; stroke:none;" d="M150 54L151 55L150 54z"/>
<path style="fill:#3b90c7; stroke:none;" d="M152 54L153 55L152 54z"/>
<path style="fill:#ebc765; stroke:none;" d="M156 54L157 55L156 54M167.333 54.6667L167.667 55.3333L167.333 54.6667M170 54L171 55L170 54M173 54L174 55L173 54M175 54L176 55L175 54M177 54L178 55L177 54M179 54L180 55L179 54z"/>
<path style="fill:#3b90c7; stroke:none;" d="M193 54L194 55L193 54z"/>
<path style="fill:#2c3955; stroke:none;" d="M194 54L197 56L197 55L194 54z"/>
<path style="fill:#a0494c; stroke:none;" d="M197.333 54.6667L197.667 55.3333L197.333 54.6667z"/>
<path style="fill:#3b90c7; stroke:none;" d="M206 54L207 55L206 54z"/>
<path style="fill:#ebc765; stroke:none;" d="M208 54L209 55L208 54M210 54L211 55L210 54z"/>
<path style="fill:#a0494c; stroke:none;" d="M213 54L214 55L213 54z"/>
<path style="fill:#3b90c7; stroke:none;" d="M229 54L230 55L229 54z"/>
<path style="fill:#ebc765; stroke:none;" d="M238 54L239 55L238 54M240 54L241 55L240 54M243 54L244 55L243 54z"/>
<path style="fill:#3b90c7; stroke:none;" d="M247 54L248 55L247 54z"/>
<path style="fill:#ebc765; stroke:none;" d="M248.667 54.3333L249.333 54.6667L248.667 54.3333z"/>
<path style="fill:#a0494c; stroke:none;" d="M257 54L258 55L257 54z"/>
<path style="fill:#ebc765; stroke:none;" d="M142 55L143 56L142 55z"/>
<path style="fill:#a0494c; stroke:none;" d="M146 55L147 56L146 55z"/>
<path style="fill:#ebc765; stroke:none;" d="M157 55L158 56L157 55z"/>
<path style="fill:#3b90c7; stroke:none;" d="M171 55L172 56L171 55z"/>
<path style="fill:#a0494c; stroke:none;" d="M174 55L175 56L174 55z"/>
<path style="fill:#3b90c7; stroke:none;" d="M178 55L179 56L178 55M191 55L192 56L191 55z"/>
<path style="fill:#a0494c; stroke:none;" d="M209 55L210 56L209 55z"/>
<path style="fill:#ebc765; stroke:none;" d="M213 55L214 56L213 55z"/>
<path style="fill:#3b90c7; stroke:none;" d="M215 55L216 56L215 55z"/>
<path style="fill:#ebc765; stroke:none;" d="M228 55L229 56L228 55M233 55L234 56L233 55z"/>
<path style="fill:#3b90c7; stroke:none;" d="M239 55L240 56L239 55z"/>
<path style="fill:#a0494c; stroke:none;" d="M248 55L249 56L248 55z"/>
<path style="fill:#2c3955; stroke:none;" d="M249 55L250 58L251 58L251 55L249 55z"/>
<path style="fill:#ebc765; stroke:none;" d="M257 55L258 56L257 55z"/>
<path style="fill:#a0494c; stroke:none;" d="M245.667 56.3333L246.333 56.6667L245.667 56.3333z"/>
<path style="fill:#fcfcfd; stroke:none;" d="M247 56L247 57L250 57L247 56z"/>
<path style="fill:#ebc765; stroke:none;" d="M251 56L252 57L251 56z"/>
<path style="fill:#3b90c7; stroke:none;" d="M213.333 57.6667L213.667 58.3333L213.333 57.6667M245 57L246 58L245 57z"/>
<path style="fill:#2c3955; stroke:none;" d="M246 57L247 58L246 57z"/>
<path style="fill:#3b90c7; stroke:none;" d="M247 57L248 58L247 57z"/>
<path style="fill:#ebc765; stroke:none;" d="M248 57L249 58L248 57z"/>
<path style="fill:#3b90c7; stroke:none;" d="M249.333 57.6667L249.667 58.3333L249.333 57.6667z"/>
<path style="fill:#a0494c; stroke:none;" d="M145 58L146 59L145 58z"/>
<path style="fill:#ebc765; stroke:none;" d="M214 58L215 59L214 58M246 58L247 59L246 58z"/>
<path style="fill:#a0494c; stroke:none;" d="M247.667 58.3333L248.333 58.6667L247.667 58.3333z"/>
</svg>
